<svg width="38" height="42" viewBox="0 0 38 42" fill="none" xmlns="http://www.w3.org/2000/svg">
<g id="Group 28">
<path id="Vector" d="M2 9.51129H5.75556H35.8" stroke="#3D3D3D" stroke-opacity="0.7" stroke-width="4" stroke-linecap="round" stroke-linejoin="round"/>
<path id="Vector_2" d="M32.0443 9.51111V35.8C32.0443 36.796 31.6486 37.7513 30.9443 38.4556C30.24 39.1599 29.2847 39.5556 28.2887 39.5556H9.51093C8.51489 39.5556 7.55965 39.1599 6.85535 38.4556C6.15104 37.7513 5.75537 36.796 5.75537 35.8V9.51111M11.3887 9.51111V5.75556C11.3887 4.75952 11.7844 3.80428 12.4887 3.09998C13.193 2.39567 14.1482 2 15.1443 2H22.6554C23.6514 2 24.6066 2.39567 25.3109 3.09998C26.0153 3.80428 26.4109 4.75952 26.4109 5.75556V9.51111" stroke="#3D3D3D" stroke-opacity="0.7" stroke-width="4" stroke-linecap="round" stroke-linejoin="round"/>
<path id="Vector_3" d="M15.1445 18.9V30.1667" stroke="#3D3D3D" stroke-opacity="0.7" stroke-width="4" stroke-linecap="round" stroke-linejoin="round"/>
<path id="Vector_4" d="M22.6558 18.9V30.1667" stroke="#3D3D3D" stroke-opacity="0.7" stroke-width="4" stroke-linecap="round" stroke-linejoin="round"/>
</g>
</svg>
